<?xml version="1.0" encoding="UTF-8" standalone="no"?>
<svg
   xmlns:dc="http://purl.org/dc/elements/1.1/"
   xmlns:cc="http://creativecommons.org/ns#"
   xmlns:rdf="http://www.w3.org/1999/02/22-rdf-syntax-ns#"
   xmlns:svg="http://www.w3.org/2000/svg"
   xmlns="http://www.w3.org/2000/svg"
   xmlns:sodipodi="http://sodipodi.sourceforge.net/DTD/sodipodi-0.dtd"
   xmlns:inkscape="http://www.inkscape.org/namespaces/inkscape"
   version="1.0"
   width="86400.000000pt"
   height="61488.000000pt"
   viewBox="0 0 86400.000000 61488.000000"
   preserveAspectRatio="xMidYMid meet"
   id="svg44"
   sodipodi:docname="logo_1.svg"
   inkscape:version="0.92.3 (2405546, 2018-03-11)">
  <defs
     id="defs48" />
  <sodipodi:namedview
     pagecolor="#ffffff"
     bordercolor="#666666"
     borderopacity="1"
     objecttolerance="10"
     gridtolerance="10"
     guidetolerance="10"
     inkscape:pageopacity="0"
     inkscape:pageshadow="2"
     inkscape:window-width="2560"
     inkscape:window-height="1329"
     id="namedview46"
     showgrid="false"
     inkscape:zoom="0.01"
     inkscape:cx="65274.904"
     inkscape:cy="40654.421"
     inkscape:window-x="0"
     inkscape:window-y="55"
     inkscape:window-maximized="1"
     inkscape:current-layer="g42" />
  <metadata
     id="metadata2">
Created by potrace 1.16, written by Peter Selinger 2001-2019
<rdf:RDF>
  <cc:Work
     rdf:about="">
    <dc:format>image/svg+xml</dc:format>
    <dc:type
       rdf:resource="http://purl.org/dc/dcmitype/StillImage" />
  </cc:Work>
</rdf:RDF>
</metadata>
  <g
     transform="translate(0.000000,61488.000000) scale(7.200000,-7.200000)"
     fill="#000000"
     stroke="none"
     id="g42">
    <path
       d="m 2064.0811,4739.2075 c -85.4916,-261.8181 -211.0575,-659.8887 -283.1911,-886.9759 -136.2524,-416.7718 -146.9388,-496.9202 -77.4769,-496.9202 26.7162,0 122.8943,264.4898 325.937,894.9908 157.6252,491.577 283.1911,911.0204 275.1763,929.7218 -5.3433,16.0296 -29.3878,32.0593 -50.7607,32.0593 -29.3877,0 -85.4917,-141.5956 -189.6846,-472.8758 z"
       id="path4"
       style="fill:#d62b70;fill-opacity:1;stroke-width:2.67161441"
       inkscape:connector-curvature="0" />
    <path
       d="m 1035.5097,4661.7307 c -515.62166,-347.3098 -515.62166,-392.7273 8.0148,-737.3655 195.0278,-130.9091 368.6828,-235.102 387.384,-235.102 18.7014,0 32.0594,21.3729 32.0594,48.0889 -2.6717,29.3878 -128.2375,128.2376 -341.9666,272.5047 -221.74396,149.6105 -341.96666,245.7887 -347.3099,280.5196 -5.34315,42.7458 72.13365,104.193 341.9666,280.5195 224.4156,146.9388 347.3099,243.1169 347.3099,275.1762 0,82.8201 -88.1633,45.4175 -427.4582,-184.3414 z"
       id="path6"
       style="fill:#d62b70;fill-opacity:1;stroke-width:2.67161441"
       inkscape:connector-curvature="0" />
    <path
       d="m 2496.8826,4875.4599 c -10.6864,-10.6865 -18.7013,-29.3878 -18.7013,-40.0743 0,-10.6863 162.9685,-128.2374 360.6679,-264.4897 197.6995,-133.5807 360.668,-259.1466 360.668,-280.5195 0,-21.373 -162.9685,-146.9388 -360.668,-280.5196 -197.6994,-133.5807 -360.6679,-253.8033 -360.6679,-267.1613 0,-80.1485 109.5362,-34.7311 438.1447,184.3413 518.2932,347.3099 518.2932,387.3841 13.3582,726.6791 -333.9519,221.744 -398.0707,256.475 -432.8016,221.744 z"
       id="path8"
       style="fill:#d62b70;fill-opacity:1;stroke-width:2.67161441"
       inkscape:connector-curvature="0" />
    <path
       d="m 5817.699,4290.3764 c 0,-208.3859 8.0152,-253.8034 40.0744,-253.8034 29.3874,0 40.0739,29.3878 40.0739,101.5213 0,122.8943 53.4327,208.386 117.5513,184.3414 32.0593,-13.3579 42.7458,-50.7606 42.7458,-152.2819 0,-114.8795 8.0151,-133.5808 53.4321,-133.5808 45.4177,0 53.4322,18.7013 53.4322,114.8795 0,61.4471 -8.0145,138.9239 -16.0296,173.6549 -21.3729,72.1336 -117.5508,101.5213 -195.0278,58.7755 -50.7608,-26.7162 -56.104,-21.3728 -56.104,66.7903 0,64.1188 -10.6865,93.5066 -40.0739,93.5066 -32.0592,0 -40.0744,-45.4174 -40.0744,-253.8034 z"
       id="path10"
       inkscape:connector-curvature="0"
       style="stroke-width:2.67161441" />
    <path
       d="m 7313.8033,4290.3764 c 0,-203.0427 8.0145,-253.8034 37.4026,-253.8034 29.3873,0 42.7457,37.4027 48.0889,122.8943 5.3433,85.4916 24.0446,136.2523 56.104,154.9536 64.1186,40.0743 98.8498,-16.0297 98.8498,-162.9684 0,-85.4917 10.6864,-114.8795 40.0739,-114.8795 32.0593,0 40.0743,34.731 40.0743,157.6253 0,189.6846 -42.7457,243.1169 -162.9684,197.6995 -77.4768,-29.3877 -77.4768,-29.3877 -77.4768,61.4471 0,64.1187 -13.3584,90.8349 -40.0745,90.8349 -32.0593,0 -40.0738,-45.4174 -40.0738,-253.8034 z"
       id="path12"
       inkscape:connector-curvature="0"
       style="stroke-width:2.67161441" />
    <path
       d="m 10546.457,4464.0313 c 0,-72.1335 -5.344,-77.4768 -77.478,-64.1187 -170.983,34.7309 -256.475,-192.3563 -122.894,-325.9369 50.761,-50.7607 82.82,-61.4472 128.238,-48.0892 32.059,10.6865 85.491,18.7014 120.223,16.0297 56.104,-5.3432 58.775,2.6717 58.775,248.4602 0,235.1021 -2.671,253.8034 -53.433,253.8034 -42.745,0 -53.431,-18.7013 -53.431,-80.1485 z m -5.344,-243.1169 c 5.344,-72.1336 -2.672,-101.5213 -37.402,-114.8794 -61.447,-24.0445 -117.551,29.3878 -117.551,117.5511 0,88.1632 21.372,112.2078 93.506,101.5213 40.074,-5.3432 56.104,-32.0593 61.447,-104.193 z"
       id="path14"
       inkscape:connector-curvature="0"
       style="stroke-width:2.67161441" />
    <path
       d="m 4348.3115,4453.3449 c 0,-34.731 -16.0298,-72.1337 -32.0594,-77.4768 -26.7161,-10.6865 -26.7161,-18.7014 -2.6718,-37.4027 16.0296,-13.358 34.7312,-82.8199 40.0743,-154.9536 8.0146,-122.8943 13.3579,-133.5807 82.8202,-141.5956 69.4619,-8.0149 98.8493,29.3878 45.417,61.4472 -37.4024,24.0446 -32.0593,219.0723 8.0151,237.7737 26.7161,13.3581 26.7161,18.7013 0,32.0593 -18.7015,8.0148 -34.7312,45.4175 -34.7312,80.1485 0,45.4175 -16.0296,64.1187 -53.4321,64.1187 -37.4025,0 -53.4321,-18.7012 -53.4321,-64.1187 z"
       id="path16"
       inkscape:connector-curvature="0"
       style="stroke-width:2.67161441" />
    <path
       d="m 8783.191,4469.3745 c 0,-26.7161 -16.0296,-64.1187 -32.0593,-80.1483 -26.7161,-26.7161 -26.7161,-40.0743 -2.6713,-53.4323 16.0296,-10.6865 34.7306,-80.1484 40.0739,-152.2821 8.0151,-122.8943 13.3583,-133.5807 82.8201,-141.5956 80.1483,-10.6864 93.5066,24.0446 32.0593,74.8052 -21.3729,18.7014 -40.0744,74.8052 -40.0744,122.8944 0,64.1186 13.3583,90.8348 40.0744,90.8348 21.3729,0 40.0745,10.6865 40.0745,24.0446 0,13.358 -18.7016,29.3877 -40.0745,40.0742 -21.3729,8.0148 -40.0744,40.0741 -40.0744,69.4619 0,29.3878 -18.701,53.4323 -40.0739,53.4323 -21.3728,0 -40.0744,-21.3729 -40.0744,-48.0891 z"
       id="path18"
       inkscape:connector-curvature="0"
       style="stroke-width:2.67161441" />
    <path
       d="m 4620.8161,4357.1667 c -77.477,-72.1335 -77.477,-213.7291 -5.3432,-280.5195 66.7898,-61.447 203.0422,-64.1187 259.1463,-5.3432 61.4473,61.4471 24.0447,85.4917 -69.4618,45.4174 -85.4915,-34.7309 -136.2523,-18.7012 -136.2523,42.7459 0,26.7161 32.0592,37.4026 120.2226,37.4026 109.5362,0 120.2227,5.3432 120.2227,64.1187 0,74.8053 -88.1634,149.6104 -173.6548,149.6104 -32.0593,0 -82.8202,-24.0445 -114.8795,-53.4323 z m 181.6694,-66.7903 c 0,-24.0445 -24.0442,-40.0742 -66.7899,-40.0742 -64.1192,0 -85.4921,26.7161 -48.0896,61.4471 32.0599,34.731 114.8795,18.7013 114.8795,-21.3729 z"
       id="path20"
       inkscape:connector-curvature="0"
       style="stroke-width:2.67161441" />
    <path
       d="m 5037.5877,4381.2112 c -50.7604,-29.3877 -66.7901,-104.1929 -21.3729,-104.1929 16.0296,0 50.7608,13.3581 77.4769,32.0595 56.104,34.7309 149.6106,10.6864 122.894,-32.0595 -8.0145,-13.358 -45.4171,-26.7161 -77.4764,-26.7161 -98.8498,0 -187.0132,-85.4917 -165.6403,-154.9537 18.7016,-56.1038 61.4473,-74.8051 149.6107,-61.4472 21.3728,2.6717 77.4764,5.3434 120.2226,5.3434 h 80.1483 l -8.0151,152.2819 c -5.3432,101.5215 -24.0443,162.9686 -53.4321,187.0131 -50.7609,37.4026 -160.2967,40.0742 -224.4157,2.6715 z m 165.6402,-237.7736 c -32.0593,-58.7755 -93.5066,-69.4619 -122.8945,-24.0445 -21.3729,34.731 34.7312,77.4768 104.193,77.4768 40.0744,0 42.7457,-8.0148 18.7015,-53.4323 z"
       id="path22"
       inkscape:connector-curvature="0"
       style="stroke-width:2.67161441" />
    <path
       d="m 5443.6733,4357.1667 c -69.4619,-69.4619 -69.4619,-216.4007 0,-280.5195 93.5065,-85.4916 293.8775,-45.4174 293.8775,56.1039 0,48.0891 -50.7609,48.0891 -106.8649,-2.6716 -74.8051,-66.7904 -138.9237,-21.3729 -128.2373,90.8349 5.3432,77.4768 21.3729,98.8498 69.4619,104.193 32.0593,5.3432 58.7754,-2.6717 58.7754,-18.7013 0,-16.0297 24.0447,-29.3878 53.4327,-29.3878 64.1186,0 69.4618,34.731 10.6864,90.8349 -58.7759,58.7755 -187.0132,53.4323 -251.1317,-10.6865 z"
       id="path24"
       inkscape:connector-curvature="0"
       style="stroke-width:2.67161441" />
    <path
       d="m 6333.3209,4391.8978 -88.1633,-10.6866 v -173.6549 c 0,-133.5806 8.0145,-170.9833 40.0738,-170.9833 29.388,0 40.0745,29.3878 40.0745,96.1781 0,109.5362 40.0743,197.6995 90.8346,197.6995 48.0896,0 69.4624,-58.7755 69.4624,-189.6846 0,-74.8052 10.6864,-104.193 40.0739,-104.193 29.3879,0 40.0743,29.3878 40.0743,114.8795 0,133.5807 32.0593,192.3562 90.8348,170.9832 32.0593,-13.3579 42.7458,-53.4323 42.7458,-152.2819 0,-114.8795 8.015,-133.5808 53.4326,-133.5808 48.089,0 53.4322,18.7013 53.4322,144.2672 0,200.371 -80.1483,275.1763 -213.7293,203.0427 -34.7311,-18.7013 -56.104,-18.7013 -66.7904,0 -16.0297,26.7161 -32.0593,26.7161 -192.3559,8.0149 z"
       id="path26"
       inkscape:connector-curvature="0"
       style="stroke-width:2.67161441" />
    <path
       d="m 6939.7769,4362.5101 c -66.7898,-56.104 -82.8196,-229.759 -21.3729,-285.8629 69.4625,-69.462 267.1615,-50.7607 299.2208,26.7162 18.7016,48.0891 -42.7457,53.4323 -114.8795,8.0148 -40.0738,-24.0445 -61.4467,-24.0445 -93.5059,2.6716 -72.1338,61.4472 -48.0896,82.8201 90.8347,82.8201 114.8794,0 133.5803,8.0149 133.5803,53.4323 0,72.1335 -93.5059,160.2968 -170.9829,160.2968 -34.7312,0 -90.8353,-21.3728 -122.8946,-48.0889 z m 181.67,-77.4769 c 5.3432,-24.0446 -18.7016,-34.731 -72.1338,-34.731 -61.4466,0 -77.4769,10.6864 -64.1185,42.7459 16.0296,45.4173 117.5507,40.0741 136.2523,-8.0149 z"
       id="path28"
       inkscape:connector-curvature="0"
       style="stroke-width:2.67161441" />
    <path
       d="m 7773.3206,4349.1519 c -144.2669,-152.282 5.3432,-384.7125 200.3714,-309.9072 93.5067,34.731 114.8796,69.4619 114.8796,178.9981 0,173.655 -197.6997,256.475 -315.251,130.9091 z m 208.3859,-72.1336 c 56.1042,-104.1929 -40.0737,-227.0872 -122.894,-157.6252 -37.4024,32.0594 -50.7608,160.2968 -18.7015,192.3562 34.7312,37.4026 114.8794,16.0297 141.5955,-34.731 z"
       id="path30"
       inkscape:connector-curvature="0"
       style="stroke-width:2.67161441" />
    <path
       d="m 9050.3524,4357.1667 c -69.4618,-69.4619 -69.4618,-216.4007 0,-280.5195 122.8946,-112.2078 320.5937,-26.7161 320.5937,138.9239 0,112.2079 -80.1482,195.0279 -187.0126,195.0279 -45.4177,0 -104.193,-24.0445 -133.5811,-53.4323 z m 208.3861,-136.2523 c 5.3433,-69.4619 -5.3432,-101.5213 -32.0593,-112.2078 -74.805,-29.3878 -122.8946,10.6865 -122.8946,98.8497 0,104.193 18.7016,128.2376 93.5067,117.5511 40.0744,-5.3432 56.104,-32.0593 61.4472,-104.193 z"
       id="path32"
       inkscape:connector-curvature="0"
       style="stroke-width:2.67161441" />
    <path
       d="m 9491.1689,4343.8087 c -122.8941,-120.2226 -50.7604,-315.2505 114.8795,-315.2505 80.1489,0 192.3563,69.462 192.3563,120.2226 0,40.0743 -88.1637,21.373 -122.8943,-24.0445 -45.4176,-64.1188 -128.2379,-16.0297 -138.924,77.4768 -10.6861,96.1781 58.775,146.9388 138.924,101.5213 98.849,-50.7607 144.2666,-21.3728 74.8055,48.0891 -77.4768,77.4769 -178.9981,74.8052 -259.147,-8.0148 z"
       id="path34"
       inkscape:connector-curvature="0"
       style="stroke-width:2.67161441" />
    <path
       d="m 9905.2686,4357.1667 c -69.4611,-69.4619 -69.4611,-216.4007 0,-280.5195 77.4768,-69.462 211.0584,-64.1187 272.5054,10.6865 149.61,187.013 -104.194,438.1448 -272.5054,269.833 z m 208.3864,-122.8942 c 8.015,-90.8349 -45.418,-154.9537 -109.537,-128.2375 -98.8494,37.4026 -61.4466,235.1021 40.075,219.0724 45.417,-5.3432 64.119,-29.3878 69.462,-90.8349 z"
       id="path36"
       inkscape:connector-curvature="0"
       style="stroke-width:2.67161441" />
    <path
       d="m 10784.23,4359.8384 c -69.462,-56.104 -82.821,-224.4156 -18.701,-283.1912 69.462,-69.462 267.162,-50.7607 299.221,26.7162 18.701,48.0891 -42.746,53.4323 -114.879,8.0148 -40.075,-24.0445 -61.448,-24.0445 -93.506,2.6716 -72.135,61.4472 -48.091,82.8201 90.834,82.8201 114.879,0 133.581,8.0149 133.581,53.4323 0,72.1335 -93.508,160.2968 -170.984,160.2968 -34.731,0 -90.835,-21.3728 -125.566,-50.7606 z m 184.341,-74.8052 c 5.343,-24.0446 -18.7,-34.731 -72.134,-34.731 -80.148,0 -104.192,24.0445 -64.118,64.1187 29.387,26.7162 122.894,8.0148 136.252,-29.3877 z"
       id="path38"
       inkscape:connector-curvature="0"
       style="stroke-width:2.67161441" />
    <path
       d="m 8155.3616,4333.1222 c 8.0151,-26.7161 29.388,-101.5213 48.0895,-165.6401 24.0442,-85.4916 48.0889,-120.2226 90.8347,-125.5659 48.089,-8.0149 64.1187,10.6865 90.8347,106.8646 l 32.0593,114.8795 32.0594,-106.8646 c 21.3728,-74.8052 48.0894,-109.5362 85.492,-114.8795 56.1035,-8.0149 58.7753,-5.3432 154.9533,309.9073 8.015,18.7014 -10.6865,32.0594 -40.074,32.0594 -37.4024,0 -58.7758,-29.3877 -82.8201,-112.2078 l -32.0592,-114.8794 -32.0594,106.8646 c -21.3728,72.1336 -48.0894,109.5361 -85.492,114.8794 -42.7457,5.3432 -58.7753,-13.3581 -80.1483,-106.8646 l -24.0447,-114.8794 -37.4026,114.8794 c -24.0442,80.1484 -50.7603,112.2078 -85.4914,112.2078 -37.4025,0 -48.0889,-13.358 -34.7312,-50.7607 z"
       id="path40"
       inkscape:connector-curvature="0"
       style="stroke-width:2.67161441" />
  </g>
</svg>
